<svg width="105" height="20" viewBox="0 0 105 20" fill="none" xmlns="http://www.w3.org/2000/svg">
<path d="M52.002 14C53.0628 14 54.0802 13.5786 54.8304 12.8284C55.5805 12.0783 56.002 11.0609 56.002 10C56.002 8.93913 55.5805 7.92172 54.8304 7.17157C54.0802 6.42143 53.0628 6 52.002 6C50.9411 6 49.9237 6.42143 49.1735 7.17157C48.4234 7.92172 48.002 8.93913 48.002 10C48.002 11.0609 48.4234 12.0783 49.1735 12.8284C49.9237 13.5786 50.9411 14 52.002 14V14Z" stroke="#141414" stroke-width="1.5" stroke-linecap="round" stroke-linejoin="round"/>
<path d="M43.002 14V6C43.002 4.67392 43.5287 3.40215 44.4664 2.46447C45.4041 1.52678 46.6759 1 48.002 1H56.002C57.328 1 58.5998 1.52678 59.5375 2.46447C60.4752 3.40215 61.002 4.67392 61.002 6V14C61.002 15.3261 60.4752 16.5979 59.5375 17.5355C58.5998 18.4732 57.328 19 56.002 19H48.002C46.6759 19 45.4041 18.4732 44.4664 17.5355C43.5287 16.5979 43.002 15.3261 43.002 14Z" stroke="#141414" stroke-width="1.5"/>
<path d="M57.502 4.51002L57.512 4.49902" stroke="#141414" stroke-width="1.5" stroke-linecap="round" stroke-linejoin="round"/>
<path d="M17.635 5.978C17.648 6.153 17.648 6.327 17.648 6.501C17.648 11.826 13.595 17.962 6.18795 17.962C3.90595 17.962 1.78595 17.301 0.00195312 16.153C0.325953 16.19 0.637953 16.203 0.974953 16.203C2.78795 16.2074 4.5496 15.6011 5.97595 14.482C5.13537 14.4668 4.32053 14.1895 3.64519 13.6887C2.96985 13.188 2.46774 12.4889 2.20895 11.689C2.45795 11.726 2.70795 11.751 2.96995 11.751C3.33095 11.751 3.69395 11.701 4.03095 11.614C3.11871 11.4298 2.29843 10.9353 1.70957 10.2147C1.12072 9.49402 0.799646 8.59165 0.800953 7.661V7.611C1.33795 7.91 1.96095 8.097 2.62095 8.122C2.06804 7.75459 1.61467 7.25602 1.30129 6.67079C0.987913 6.08556 0.824266 5.43186 0.824953 4.768C0.824953 4.02 1.02395 3.334 1.37295 2.736C2.38509 3.98102 3.64746 4.99956 5.07829 5.72566C6.50912 6.45176 8.07651 6.86922 9.67895 6.951C9.61695 6.651 9.57895 6.34 9.57895 6.028C9.57869 5.49896 9.6827 4.97506 9.88503 4.48624C10.0874 3.99742 10.3841 3.55327 10.7581 3.17919C11.1322 2.8051 11.5764 2.50841 12.0652 2.30608C12.554 2.10375 13.0779 1.99974 13.607 2C14.767 2 15.814 2.486 16.55 3.272C17.4517 3.09762 18.3165 2.76842 19.106 2.299C18.8054 3.22982 18.1757 4.0191 17.335 4.519C18.1347 4.42778 18.9164 4.21745 19.654 3.895C19.1031 4.6981 18.4205 5.40235 17.635 5.978Z" fill="#141414"/>
<path fill-rule="evenodd" clip-rule="evenodd" d="M96.219 4.243C97.147 2.988 98.173 2 99.485 2C101.962 2 104.002 5.153 104.003 8.907C104.003 11.197 103.017 12.632 101.246 12.632C99.703 12.632 98.851 11.766 97.322 9.208L96.655 8.085L96.537 7.888C96.363 7.59403 96.1863 7.30168 96.007 7.011L94.829 9.091C93.156 12.016 92.214 12.632 90.906 12.632C89.088 12.632 88.002 11.217 88.002 8.973C88.002 5.388 89.997 2 92.6 2C92.919 2 93.225 2.039 93.524 2.122C93.834 2.208 94.135 2.342 94.437 2.529C95.014 2.888 95.591 3.444 96.219 4.243ZM97.735 6.467C97.483 6.057 97.241 5.68 97.008 5.334L97.002 5.326C97.847 4.021 98.545 3.372 99.374 3.372C101.097 3.372 102.476 5.909 102.476 9.025C102.476 10.213 102.086 10.902 101.281 10.902C100.508 10.902 100.139 10.392 98.671 8.032L97.734 6.467H97.735ZM92.848 3.756C93.573 3.856 94.233 4.39 95.188 5.757C94.6369 6.60077 94.0919 7.44846 93.553 8.3C92.196 10.426 91.727 10.903 90.972 10.903C90.195 10.903 89.732 10.221 89.732 9.003C89.732 6.401 91.03 3.739 92.578 3.739C92.669 3.739 92.759 3.745 92.848 3.757V3.756Z" fill="#141414"/>
</svg>
