<svg width="17" height="16" viewBox="0 0 17 16" fill="none" xmlns="http://www.w3.org/2000/svg">
<path d="M8.00196 0C6.4197 0 4.87299 0.469192 3.55739 1.34824C2.2418 2.22729 1.21642 3.47672 0.61092 4.93853C0.0054194 6.40034 -0.153007 8.00887 0.155674 9.56072C0.464356 11.1126 1.22628 12.538 2.3451 13.6569C3.46392 14.7757 4.88939 15.5376 6.44123 15.8463C7.99308 16.155 9.60161 15.9965 11.0634 15.391C12.5252 14.7855 13.7747 13.7602 14.6537 12.4446C15.5328 11.129 16.002 9.58225 16.002 8C15.9995 5.879 15.1559 3.84557 13.6562 2.3458C12.1564 0.846028 10.1229 0.00240243 8.00196 0ZM8.00196 14.7692C6.66313 14.7692 5.35437 14.3722 4.24117 13.6284C3.12798 12.8846 2.26035 11.8274 1.748 10.5905C1.23566 9.35356 1.1016 7.99249 1.36279 6.67939C1.62399 5.36629 2.26869 4.16012 3.21539 3.21343C4.16208 2.26674 5.36824 1.62203 6.68134 1.36084C7.99445 1.09965 9.35551 1.2337 10.5924 1.74605C11.8293 2.25839 12.8866 3.12602 13.6304 4.23922C14.3742 5.35241 14.7712 6.66117 14.7712 8C14.7691 9.79468 14.0553 11.5153 12.7863 12.7843C11.5172 14.0534 9.79664 14.7672 8.00196 14.7692ZM5.54065 7.99961C5.5407 8.51624 5.70329 9.01976 6.00539 9.43885C6.30749 9.85794 6.73379 10.1714 7.22391 10.3347C7.71403 10.4981 8.24312 10.5031 8.73625 10.3491C9.22938 10.1951 9.66156 9.88981 9.97157 9.47654C10.0696 9.34606 10.2155 9.25988 10.3771 9.23695C10.4571 9.22559 10.5386 9.23011 10.6168 9.25024C10.6951 9.27037 10.7686 9.30572 10.8332 9.35427C10.8978 9.40282 10.9522 9.46361 10.9933 9.53319C11.0345 9.60277 11.0615 9.67976 11.0728 9.75977C11.0842 9.83978 11.0796 9.92125 11.0595 9.99951C11.0394 10.0778 11.004 10.1513 10.9555 10.2159C10.4904 10.8357 9.8421 11.2934 9.10244 11.5242C8.36278 11.7551 7.56923 11.7474 6.83418 11.5023C6.09913 11.2571 5.45983 10.7869 5.00682 10.1583C4.5538 9.52968 4.31003 8.77447 4.31003 7.99961C4.31003 7.22476 4.5538 6.46955 5.00682 5.84092C5.45983 5.21229 6.09913 4.74211 6.83418 4.49697C7.56923 4.25182 8.36278 4.24414 9.10244 4.475C9.8421 4.70586 10.4904 5.16357 10.9555 5.78331C11.051 5.91393 11.0912 6.07691 11.0674 6.23695C11.0436 6.397 10.9577 6.54123 10.8284 6.63843C10.699 6.73564 10.5366 6.77798 10.3762 6.7563C10.2159 6.73463 10.0705 6.65067 9.97165 6.52261C9.66164 6.1093 9.22945 5.804 8.7363 5.64996C8.24314 5.49592 7.71402 5.50094 7.22388 5.66432C6.73374 5.8277 6.30743 6.14116 6.00533 6.56028C5.70324 6.97941 5.54066 7.48296 5.54065 7.99961Z" fill="black"/>
</svg>
